<?xml version="1.0" encoding="utf-8"?>
<!-- Generator: Adobe Illustrator 26.0.1, SVG Export Plug-In . SVG Version: 6.00 Build 0)  -->
<svg version="1.1" id="Calque_1" xmlns="http://www.w3.org/2000/svg" xmlns:xlink="http://www.w3.org/1999/xlink" x="0px" y="0px"
	 viewBox="0 0 1080 1080" style="enable-background:new 0 0 1080 1080;" xml:space="preserve">
<style type="text/css">
	.st0{fill:#FFFFFF;}
	.st1{clip-path:url(#SVGID_00000138554200951823364490000014398009254212180129_);}
	.st2{fill:none;stroke:#000000;stroke-width:30;stroke-miterlimit:10;}
	.st3{fill:none;stroke:#000000;stroke-width:15;stroke-miterlimit:10;}
	.st4{fill:none;stroke:#000000;stroke-width:10;stroke-miterlimit:10;}
</style>
<g id="Calque_2_00000142883258301673870250000011954574306719570825_">
	<path class="st0" d="M140.8,0h798.5C1017,0,1080,63,1080,140.8v798.5c0,77.7-63,140.8-140.8,140.8H140.8C63,1080,0,1017,0,939.2
		V140.8C0,63,63,0,140.8,0z"/>
</g>
<g id="Calque_1_00000173876347169198588920000015065946647906020781_">
	<g>
		<defs>
			<rect id="SVGID_1_" width="1080" height="1080"/>
		</defs>
		<clipPath id="SVGID_00000047747978909694560860000009544902561318481312_">
			<use xlink:href="#SVGID_1_"  style="overflow:visible;"/>
		</clipPath>
		<g style="clip-path:url(#SVGID_00000047747978909694560860000009544902561318481312_);">
			<path d="M540,246c201.4,0.3,364.5,163.8,364.2,365.3C903.9,812.7,740.4,975.7,539,975.5S174.5,811.6,174.7,610.2
				c0.2-146.4,87.9-278.5,222.8-335.5C442.6,255.7,491.1,245.9,540,246 M540,216c-218.7,0-396,177.3-396,396s177.3,396,396,396
				s396-177.3,396-396S758.7,216,540,216"/>
			<rect x="513" y="171" width="54" height="63"/>
			<rect x="450" y="117" width="180" height="54"/>
			<line class="st2" x1="171" y1="720" x2="909" y2="720"/>
			<rect x="804.6" y="305.6" transform="matrix(0.7045 -0.7097 0.7097 0.7045 15.1506 683.5909)" width="47.8" height="36"/>
			<rect x="840" y="239.9" transform="matrix(0.7045 -0.7097 0.7097 0.7045 44.9916 695.7631)" width="36" height="108"/>
		</g>
	</g>
	<path d="M414.1,883.9v-91.2h21v91.2H414.1z M468,883.9v-54c0-5.9-1.4-10.4-4.4-13.6c-2.9-3.2-7-4.8-12.4-4.8c-5.2,0-9.2,1.4-12,4.2
		c-2.8,2.8-4.2,6.7-4.2,11.8l-1.9-18.9c2.3-5.1,5.9-9.5,10.5-12.7c4.3-3,9.5-4.6,14.8-4.5c9.7,0,17.1,3.4,22.5,10.1
		c5.3,6.7,8,16.2,8,28.4v54L468,883.9z M521.8,883.9v-54c0-5.9-1.5-10.4-4.4-13.6s-7.1-4.8-12.5-4.8c-5.1,0-9,1.5-11.8,4.7
		s-4.2,7.5-4.2,13.1l-4-19.3c2.5-5.5,6.5-10.2,11.4-13.8c4.5-3.2,9.9-4.8,15.4-4.8c9.9,0,17.6,3.4,23,10.1
		c5.4,6.7,8.1,16.2,8.1,28.4v54L521.8,883.9z"/>
	<path d="M601.8,885.2c-7.7,0.1-15.4-1.1-22.7-3.4c-6.7-2.1-12.9-5.5-18.3-9.9l12.8-15.8c4.4,3.1,9.2,5.6,14.2,7.5
		c4.5,1.6,9.3,2.5,14.1,2.5c6.4,0,11.2-0.9,14.5-2.6c3.3-1.7,5-4.2,5-7.5c0-3.1-1.1-5.3-3.4-6.5c-2.8-1.3-5.8-2.1-8.8-2.4
		c-3.6-0.4-7.5-0.8-11.7-1.2c-3.8-0.4-7.6-1-11.3-1.6c-3.6-0.6-7-1.8-10.2-3.5c-3.1-1.7-5.7-4.2-7.4-7.3c-1.8-3.2-2.8-7.7-2.8-13.2
		c0-9.4,3.1-16.6,9.3-21.5s15.2-7.4,27-7.4c6.9,0,13.7,1,20.3,3c6.4,2,12.4,4.9,17.8,8.8l-12.6,15.3c-4.1-2.5-8.4-4.5-13-5.9
		c-4.1-1.3-8.4-2-12.7-2c-5.5,0-9.7,0.8-12.6,2.4c-2.7,1.3-4.4,4-4.3,7c-0.1,2.1,1.1,4.1,3,5c2.5,1.2,5.1,1.9,7.9,2.1
		c3.3,0.4,6.8,0.8,10.5,1.1c3.9,0.3,7.9,0.8,11.9,1.5c3.8,0.6,7.6,1.8,11,3.6c3.4,1.8,6.2,4.5,8.1,7.9c2,3.5,3.1,8.3,3.1,14.4
		c0,9.7-3.3,17-9.9,22.1C624,882.7,614.4,885.2,601.8,885.2z"/>
	<path d="M879.2,614h-70c0-71.9-21.3-152.2-72.2-203s-125.1-84-197-84s-169.2,28.2-220,79s-88,97-119.2,208l0,0
		c0-187.3,151.8-339.2,339.2-339.2S879.2,426.7,879.2,614L879.2,614z"/>
	<rect x="243.2" y="438.4" transform="matrix(0.5 -0.866 0.866 0.5 -287.2818 459.8532)" class="st0" width="22.8" height="80.6"/>
	<rect x="528.6" y="264.4" class="st0" width="22.8" height="80.6"/>
	<rect x="347.9" y="312.7" transform="matrix(0.866 -0.5 0.5 0.866 -128.3441 226.9554)" class="st0" width="22.8" height="80.6"/>
	<rect x="651.9" y="333.6" transform="matrix(0.5 -0.866 0.866 0.5 47.2864 771.9346)" class="st0" width="80.6" height="22.8"/>
	
		<rect x="772.7" y="460.3" transform="matrix(0.9659 -0.2588 0.2588 0.9659 -94.3904 226.4994)" class="st0" width="80.6" height="22.8"/>
	<path class="st3" d="M477.9,423h115.2c40.9,0,74,33.2,74,74.1v115.2c0,40.9-33.2,74-74,74H477.9c-40.9,0-74-33.2-74-74V497.1
		C403.9,456.2,437,423,477.9,423z"/>
	<path class="st3" d="M403.9,587.6c-24.2,0.4-44.2-19-44.5-43.2c-0.4-24.2,19-44.2,43.2-44.5c0.4,0,0.9,0,1.3,0"/>
	<path class="st3" d="M667.1,499.8c24.2-0.4,44.2,19,44.5,43.2c0.4,24.2-19,44.2-43.2,44.5c-0.4,0-0.9,0-1.3,0"/>
	<path class="st4" d="M469.7,609.5c0,0,0,21.9,21.9,21.9h87.7c0,0,21.9,0,21.9-21.9"/>
	<path d="M481.9,554.7h-2.4c-5.4,0-9.7-4.4-9.8-9.8v-24.4c0-5.4,4.4-9.7,9.8-9.8h2.4c5.4,0,9.7,4.4,9.8,9.8v24.4
		C491.6,550.3,487.3,554.7,481.9,554.7"/>
	<path d="M591.6,554.7h-2.4c-5.4,0-9.7-4.4-9.8-9.8v-24.4c0-5.4,4.4-9.7,9.8-9.8h2.4c5.4,0,9.7,4.4,9.8,9.8v24.4
		C601.3,550.3,596.9,554.7,591.6,554.7"/>
	<path d="M402.7,510.8c0,0-32.9-142.6,65.8-98.7c54.8-43.9,263.2-76.8,197.4,109.7C556.2,445,534.3,445,479.4,445
		C457.5,477.9,435.6,488.9,402.7,510.8"/>
</g>
</svg>
