<?xml version="1.0" encoding="utf-8"?>
<!-- Generator: Adobe Illustrator 26.0.1, SVG Export Plug-In . SVG Version: 6.00 Build 0)  -->
<svg version="1.1" id="Calque_1" xmlns="http://www.w3.org/2000/svg" xmlns:xlink="http://www.w3.org/1999/xlink" x="0px" y="0px"
	 viewBox="0 0 1080 1080" style="enable-background:new 0 0 1080 1080;" xml:space="preserve">
<style type="text/css">
	.st0{fill:#FFFFFF;}
	.st1{clip-path:url(#SVGID_00000005975069597106362200000014263152722653963938_);}
	.st2{fill:none;stroke:#000000;stroke-width:30;stroke-miterlimit:10;}
	.st3{fill:none;}
	.st4{fill:none;stroke:#000000;stroke-width:15;stroke-miterlimit:10;}
	.st5{clip-path:url(#SVGID_00000028321388927319123510000003419859611342778787_);}
	.st6{fill:none;stroke:#000000;stroke-width:20;stroke-miterlimit:10;}
	.st7{fill:none;stroke:#000000;stroke-width:10;stroke-miterlimit:10;}
</style>
<g id="Calque_2_00000139290345942824776990000017851025718133779342_">
	<path class="st0" d="M140.8,0h798.5C1017,0,1080,63,1080,140.8v798.5c0,77.7-63,140.8-140.8,140.8H140.8C63,1080,0,1017,0,939.2
		V140.8C0,63,63,0,140.8,0z"/>
</g>
<g id="Calque_1_00000171690509396377182110000014725026908855332028_">
	<rect x="945" y="495" width="54" height="54"/>
	<rect x="998.5" y="459" width="54.5" height="126"/>
	<g>
		<defs>
			<rect id="SVGID_1_" width="1080" height="1080"/>
		</defs>
		<clipPath id="SVGID_00000128467423881675011120000011925339745430347167_">
			<use xlink:href="#SVGID_1_"  style="overflow:visible;"/>
		</clipPath>
		<g style="clip-path:url(#SVGID_00000128467423881675011120000011925339745430347167_);">
			<path class="st2" d="M156,144h768c6.6,0,12,5.4,12,12v705c0,6.6-5.4,12-12,12H156c-6.6,0-12-5.4-12-12V156
				C144,149.4,149.4,144,156,144z"/>
			<path class="st0" d="M254.6,820.5c-2.4-0.1-4.2-2.1-4.1-4.5V660c-0.1-2.4,1.8-4.4,4.1-4.5h570.7c2.4,0.1,4.2,2.1,4.2,4.5v156
				c0.1,2.4-1.8,4.4-4.2,4.5H254.6z"/>
			<path d="M822,663v150H258V663H822z M825.3,648H254.6c-6.5,0.1-11.7,5.5-11.6,12v156c-0.1,6.5,5.1,11.9,11.6,12h570.7
				c6.5-0.1,11.7-5.5,11.7-12V660C837.1,653.5,831.9,648.1,825.3,648"/>
			<path d="M603,127c0,34.8-28.2,63-63,63s-63-28.2-63-63s28.2-63,63-63S603,92.2,603,127L603,127"/>
			<line class="st3" x1="396" y1="828" x2="396" y2="648"/>
			<line class="st4" x1="396" y1="828" x2="396" y2="648"/>
			<line class="st3" x1="540" y1="648" x2="540" y2="828"/>
			<line class="st4" x1="540" y1="648" x2="540" y2="828"/>
			<line class="st3" x1="684" y1="648" x2="684" y2="819"/>
			<line class="st4" x1="684" y1="648" x2="684" y2="819"/>
		</g>
	</g>
	<g>
		<defs>
			<rect id="SVGID_00000071545228044303775080000000812237534718959031_" width="1080" height="1080"/>
		</defs>
		<clipPath id="SVGID_00000091013454211442152940000018294228263731488663_">
			<use xlink:href="#SVGID_00000071545228044303775080000000812237534718959031_"  style="overflow:visible;"/>
		</clipPath>
		<g style="clip-path:url(#SVGID_00000091013454211442152940000018294228263731488663_);">
			<path d="M783.2,654.5v23c0,8.2-2.3,14.6-6.8,19.2s-11.3,7-20.2,7c-9,0-15.7-2.4-20.2-7.1c-4.5-4.7-6.8-11.1-6.8-19.1v-23
				 M744.4,656.7v18.5c0,4.3,0.9,7.7,2.8,10.2c1.8,2.5,4.8,3.7,9,3.7c4.2,0,7.2-1.2,9-3.7s2.8-5.9,2.8-10.2v-18.5"/>
			<polygon points="765,754.4 765,828 749.8,828 749.8,771.7 737.7,777.8 737.7,761.9 751.1,754.4 			"/>
			<polygon points="288,324 306,324 306,270 360,270 360,252 288,252 			"/>
			<polygon points="720,252 720,270 774,270 774,324 792,324 792,252 			"/>
			<polygon points="792,504 774,504 774,558 720,558 720,576 792,576 			"/>
			<polygon points="360,576 360,558 306,558 306,504 288,504 288,576 			"/>
			<path class="st6" d="M332.9,402.9c81-21.3,171-85.2,207-31.9c36-53.2,126,10.6,207,31.9C683.9,513.4,395.9,513.4,332.9,402.9z"/>
			<path class="st7" d="M333.9,402.9c125.4,28.9,286.6,28.9,412,0"/>
		</g>
	</g>
	<path d="M637.1,737.6l0.1,20.8c0,8-2.3,14.2-6.8,18.7c-4.5,4.5-11.2,6.8-20.1,6.8c-9,0-15.7-2.3-20.2-6.9
		c-4.5-4.6-6.7-10.8-6.7-18.7l-0.1-20.8l15.1-0.2l0.1,18.8c0,4.2,0.9,7.5,2.8,9.9c1.8,2.4,4.8,3.6,9,3.6c4.2,0,7.2-1.2,9-3.6
		c1.8-2.4,2.8-5.7,2.8-9.9l-0.1-18.6L637.1,737.6z"/>
	<path d="M583.2,737.7l-0.1-20.8c0-8,2.3-14.2,6.8-18.8c4.5-4.5,11.2-6.8,20.1-6.8c8.9,0,15.7,2.3,20.2,6.9s6.8,10.8,6.8,18.6
		l0.1,20.8l-15.1,0.2l-0.1-18.8c0-4.2-0.9-7.5-2.8-9.9s-4.8-3.6-9-3.6c-4.2,0-7.2,1.2-9,3.6c-1.8,2.4-2.7,5.7-2.8,9.9l0.1,18.6
		L583.2,737.7z"/>
	<path d="M493.1,737.8l0.1,20.8c0,8-2.3,14.2-6.8,18.8c-4.5,4.5-11.2,6.8-20.1,6.8c-9,0-15.7-2.3-20.2-6.9
		c-4.5-4.6-6.7-10.8-6.7-18.7l-0.1-20.8l15.1-0.2l0.1,18.8c0,4.2,0.9,7.5,2.8,9.9c1.8,2.4,4.8,3.6,9,3.6c4.2,0,7.2-1.2,9-3.6
		c1.8-2.4,2.8-5.7,2.8-9.9l-0.1-18.6L493.1,737.8z"/>
	<path d="M439.2,738l-0.1-20.8c0-8,2.3-14.2,6.8-18.7s11.2-6.8,20.1-6.8c8.9,0,15.7,2.3,20.2,6.9s6.8,10.8,6.8,18.6l0.1,20.8
		l-15.1,0.2l-0.1-18.8c0-4.2-0.9-7.5-2.8-9.9c-1.8-2.4-4.8-3.6-9-3.6c-4.2,0-7.2,1.2-9,3.6c-1.8,2.4-2.7,5.7-2.8,9.9l0.1,18.6
		L439.2,738z"/>
	<path d="M347.9,738l0.1,20.8c0,8-2.3,14.2-6.8,18.8c-4.5,4.5-11.2,6.8-20.1,6.8c-9,0-15.7-2.3-20.2-6.9s-6.7-10.8-6.7-18.7
		l-0.1-20.8l15.1-0.2l0.1,18.8c0,4.2,0.9,7.5,2.8,9.9c1.8,2.4,4.8,3.6,9,3.6c4.2,0,7.2-1.2,9-3.6s2.7-5.7,2.8-9.9l-0.1-18.6
		L347.9,738z"/>
	<path d="M294.1,738.2l-0.1-20.8c0-8,2.3-14.2,6.8-18.8c4.5-4.5,11.2-6.8,20.1-6.8c8.9,0,15.7,2.3,20.2,6.9
		c4.5,4.6,6.7,10.8,6.7,18.7l0.1,20.8l-15.1,0.2l-0.1-18.8c0-4.2-0.9-7.5-2.8-9.9c-1.8-2.4-4.8-3.6-9-3.6c-4.2,0-7.2,1.2-9,3.6
		c-1.8,2.4-2.7,5.7-2.8,9.9l0.1,18.6L294.1,738.2z"/>
</g>
</svg>
