<?xml version="1.0" encoding="utf-8"?>
<!-- Generator: Adobe Illustrator 26.0.1, SVG Export Plug-In . SVG Version: 6.00 Build 0)  -->
<svg version="1.1" id="Calque_1" xmlns="http://www.w3.org/2000/svg" xmlns:xlink="http://www.w3.org/1999/xlink" x="0px" y="0px"
	 viewBox="0 0 1080 1080" style="enable-background:new 0 0 1080 1080;" xml:space="preserve">
<style type="text/css">
	.st0{fill:#FFFFFF;}
	.st1{clip-path:url(#SVGID_00000160151993697567302140000006260744149911306112_);}
	.st2{fill:none;}
	.st3{fill:none;stroke:#000000;stroke-width:15;stroke-miterlimit:10;}
	.st4{clip-path:url(#SVGID_00000068678562950027152590000000602069063965728643_);}
</style>
<g id="Calque_3">
	<path class="st0" d="M140.8,0h798.5C1017,0,1080,63,1080,140.8v798.5c0,77.7-63,140.8-140.8,140.8H140.8C63,1080,0,1017,0,939.2
		V140.8C0,63,63,0,140.8,0z"/>
</g>
<g id="Calque_1_00000142164358664452512830000015265992161829927857_">
	<rect x="504" y="864" width="72" height="81"/>
</g>
<g id="Calque_2_00000179624170534433088040000000772125827544442286_">
	<path d="M772.7,1008H307.3c-10.7,0-19.3-8.6-19.3-19.3l0,0v-33.4c0-10.7,8.6-19.3,19.3-19.3l0,0h465.4c10.7,0,19.3,8.6,19.3,19.3
		l0,0v33.4C792,999.4,783.4,1008,772.7,1008L772.7,1008"/>
	<path d="M164.3,72h751.5c51,0,92.3,41.3,92.3,92.3v607.5c0,51-41.3,92.3-92.3,92.3H164.3c-51,0-92.3-41.3-92.3-92.3V164.3
		C72,113.3,113.3,72,164.3,72z"/>
	<path class="st0" d="M191.3,99h697.5c51,0,92.3,41.3,92.3,92.3v481.5c0,51-41.3,92.3-92.3,92.3H191.3c-51,0-92.3-41.3-92.3-92.3
		V191.3C99,140.3,140.3,99,191.3,99z"/>
	<g>
		<defs>
			<rect id="SVGID_1_" y="25.8" width="1080" height="1080"/>
		</defs>
		<clipPath id="SVGID_00000084522016918729555410000016446858158575954097_">
			<use xlink:href="#SVGID_1_"  style="overflow:visible;"/>
		</clipPath>
		<g style="clip-path:url(#SVGID_00000084522016918729555410000016446858158575954097_);">
			<path class="st0" d="M300.5,722.4c-1.2-0.1-2.2-1.2-2.1-2.4V591.3c-0.1-1.2,0.9-2.3,2.1-2.4h470.9c1.2,0.1,2.2,1.2,2.1,2.4V720
				c0.1,1.2-0.9,2.3-2.1,2.4L300.5,722.4z"/>
			<path d="M766,596.4v118.5H305.9V596.4H766z M771.4,581.4H300.5c-5.4,0.1-9.7,4.5-9.6,9.9V720c-0.1,5.4,4.2,9.8,9.6,9.9h470.9
				c5.4-0.1,9.7-4.5,9.6-9.9V591.3C781.1,585.9,776.8,581.5,771.4,581.4"/>
			<line class="st2" x1="417.2" y1="729.9" x2="417.2" y2="581.4"/>
			<line class="st3" x1="417.2" y1="729.9" x2="417.2" y2="581.4"/>
			<line class="st2" x1="536" y1="581.4" x2="536" y2="729.9"/>
			<line class="st3" x1="536" y1="581.4" x2="536" y2="729.9"/>
			<line class="st2" x1="654.8" y1="581.4" x2="654.8" y2="722.4"/>
			<line class="st3" x1="654.8" y1="581.4" x2="654.8" y2="722.4"/>
		</g>
	</g>
	<g>
		<defs>
			<rect id="SVGID_00000033342201371924816270000013641846418995591350_" y="25.8" width="1080" height="1080"/>
		</defs>
		<clipPath id="SVGID_00000152248026826004602490000001604407718452780937_">
			<use xlink:href="#SVGID_00000033342201371924816270000013641846418995591350_"  style="overflow:visible;"/>
		</clipPath>
		<g style="clip-path:url(#SVGID_00000152248026826004602490000001604407718452780937_);">
			<path d="M615.5,654l0.1,17.6c0,6.7-1.9,12-5.6,15.9c-3.8,3.8-9.3,5.8-16.6,5.8c-7.4,0-13-1.9-16.7-5.8c-3.7-3.9-5.6-9.2-5.6-15.8
				L571,654l12.5-0.1l0,15.9c0,3.6,0.8,6.4,2.3,8.4c1.5,2,4,3.1,7.5,3.1s6-1,7.5-3.1s2.3-4.8,2.3-8.4l-0.1-15.7L615.5,654z"/>
			<polygon points="721.6,669.1 721.6,729.9 709.1,729.9 709.1,683.4 699,688.5 699,675.3 710.2,669.1 			"/>
			<path d="M571,654.2v-17.6c0-6.7,1.9-12,5.6-15.9c3.8-3.8,9.3-5.8,16.6-5.8c7.4,0,13,1.9,16.7,5.8c3.7,3.9,5.6,9.2,5.6,15.8
				l0.1,17.6l-12.5,0.1l-0.1-15.9c0-3.6-0.8-6.4-2.3-8.4c-1.5-2-4-3.1-7.5-3.1s-5.9,1-7.5,3.1s-2.3,4.8-2.3,8.4l0.1,15.8L571,654.2z
				"/>
			<path d="M734.8,592l0.1,17.6c0,6.7-1.9,12-5.6,15.9s-9.3,5.8-16.6,5.8c-7.4,0-13-1.9-16.7-5.8c-3.7-3.9-5.6-9.2-5.6-15.8
				l-0.1-17.6l12.5-0.1l0.1,15.9c0,3.6,0.8,6.4,2.3,8.4c1.5,2,4,3.1,7.5,3.1s5.9-1,7.5-3.1s2.3-4.8,2.3-8.4l-0.1-15.8H734.8z"/>
			<path d="M497.9,654.3l0.1,17.6c0,6.7-1.9,12-5.6,15.9c-3.8,3.8-9.3,5.8-16.6,5.8c-7.4,0-13-1.9-16.7-5.8
				c-3.7-3.9-5.6-9.2-5.6-15.8l-0.1-17.6l12.5-0.1l0.1,15.9c0,3.6,0.8,6.4,2.3,8.4c1.5,2,4,3.1,7.5,3.1c3.5,0,5.9-1,7.5-3.1
				c1.5-2,2.3-4.9,2.3-8.4l-0.1-15.7H497.9z"/>
			<path d="M453.3,654.4l0-17.6c0-6.7,1.9-12,5.6-15.9c3.8-3.8,9.3-5.8,16.6-5.8c7.4,0,13,1.9,16.7,5.8c3.7,3.9,5.6,9.2,5.6,15.8
				l0.1,17.6l-12.5,0.1l-0.1-15.9c0-3.6-0.8-6.4-2.3-8.4s-4-3.1-7.5-3.1c-3.4,0-5.9,1-7.5,3.1c-1.5,2-2.3,4.8-2.3,8.4l0.1,15.8
				L453.3,654.4z"/>
			<path d="M378.7,654l0.1,17.6c0,6.7-1.9,12-5.6,15.9c-3.8,3.8-9.3,5.8-16.6,5.8c-7.4,0-13-1.9-16.7-5.8s-5.6-9.2-5.6-15.8
				l-0.1-17.6l12.5-0.1l0.1,15.9c0,3.6,0.8,6.4,2.3,8.4c1.5,2,4,3.1,7.5,3.1s5.9-1,7.5-3.1s2.3-4.8,2.3-8.4l-0.1-15.8L378.7,654z"/>
			<path d="M334.2,654.2l0-17.6c0-6.7,1.9-12,5.6-15.9c3.8-3.8,9.3-5.8,16.6-5.8c7.4,0,13,1.9,16.7,5.8c3.7,3.9,5.6,9.2,5.6,15.8
				l0.1,17.6l-12.5,0.1l0-15.9c0-3.6-0.8-6.4-2.3-8.4c-1.5-2-4-3.1-7.5-3.1c-3.4,0-5.9,1-7.5,3.1c-1.5,2-2.3,4.8-2.3,8.4l0.1,15.8
				L334.2,654.2z"/>
		</g>
	</g>
	<path d="M535.4,155.5C638,155.7,721.1,239,721,341.6s-83.5,185.7-186.1,185.6s-185.8-83.5-185.6-186.1
		C349.4,238.5,432.8,155.4,535.4,155.5 M535.4,135.2c-114.2,0-206.8,92.6-206.8,206.8s92.6,206.8,206.8,206.8S742.1,456.2,742.1,342
		S649.6,135.2,535.4,135.2L535.4,135.2z"/>
	<polygon points="547.5,117 523.2,117 523.2,171.7 547.5,171.7 547.5,117 	"/>
	<polygon points="547.5,512.3 523.2,512.3 523.2,567 547.5,567 547.5,512.3 	"/>
	<polygon points="761.1,329.8 706.3,329.8 706.3,354.2 761.1,354.2 761.1,329.8 	"/>
	<polygon points="365.1,329.8 310.4,329.8 310.4,354.2 365.1,354.2 365.1,329.8 	"/>
</g>
</svg>
