<?xml version="1.0" encoding="utf-8"?>
<!-- Generator: Adobe Illustrator 26.0.1, SVG Export Plug-In . SVG Version: 6.00 Build 0)  -->
<svg version="1.1" id="Calque_1" xmlns="http://www.w3.org/2000/svg" xmlns:xlink="http://www.w3.org/1999/xlink" x="0px" y="0px"
	 viewBox="0 0 1080 1080" style="enable-background:new 0 0 1080 1080;" xml:space="preserve">
<style type="text/css">
	.st0{fill:#FFFFFF;}
	.st1{fill:none;stroke:#000000;stroke-width:10;stroke-miterlimit:10;}
</style>
<g id="Calque_3">
	<path class="st0" d="M140.8,0h798.5C1017,0,1080,63,1080,140.8v798.5c0,77.7-63,140.8-140.8,140.8H140.8C63,1080,0,1017,0,939.2
		V140.8C0,63,63,0,140.8,0z"/>
</g>
<g id="Calque_1_00000134210728245550374400000018421605065777266085_">
	<rect x="504" y="864" width="72" height="81"/>
</g>
<g id="Calque_2_00000155136222567919571510000004051487445752369579_">
	<path d="M772.7,1008H307.3c-10.7,0-19.3-8.6-19.3-19.3l0,0v-33.4c0-10.7,8.6-19.3,19.3-19.3l0,0h465.4c10.7,0,19.3,8.6,19.3,19.3
		l0,0v33.4C792,999.4,783.4,1008,772.7,1008L772.7,1008"/>
	<path d="M164.3,72h751.5c51,0,92.3,41.3,92.3,92.3v607.5c0,51-41.3,92.3-92.3,92.3H164.3c-51,0-92.3-41.3-92.3-92.3V164.3
		C72,113.3,113.3,72,164.3,72z"/>
	<path class="st0" d="M191.3,99h697.5c51,0,92.3,41.3,92.3,92.3v481.5c0,51-41.3,92.3-92.3,92.3H191.3c-51,0-92.3-41.3-92.3-92.3
		V191.3C99,140.3,140.3,99,191.3,99z"/>
	<path d="M411.4,591H673c6.6,0,12,5.4,12,12v11.7c0,6.6-5.4,12-12,12H411.4c-6.6,0-12-5.4-12-12V603
		C399.4,596.4,404.8,591,411.4,591z"/>
	<path d="M411.4,245.9H673c6.6,0,12,5.4,12,12v11.7c0,6.6-5.4,12-12,12H411.4c-6.6,0-12-5.4-12-12v-11.7
		C399.4,251.3,404.8,245.9,411.4,245.9z"/>
	<path class="st1" d="M423.2,269.7c0,119,95.2,130.9,95.2,166.6s-95.2,47.6-95.2,166.6h238c0-119-95.2-130.9-95.2-166.6
		s95.2-47.6,95.2-166.6L423.2,269.7z"/>
	<path d="M625.5,358.3c-35.7,35.7-47.6,42.3-83.3,54.2c-35.7-11.9-47.6-18.5-83.3-54.2"/>
	<path d="M447,591.4c0-26.1,50.1-48,95.2-48s95.2,21.8,95.2,48"/>
	<rect x="530.3" y="388.7" width="23.8" height="154.7"/>
	<path d="M539.8,181.2c140.5,0.3,254.2,114.4,253.9,254.9S679.3,690.3,538.8,690c-140.5-0.3-254.2-114.4-253.9-254.9
		c0.2-102.1,61.4-194.2,155.5-233.9C471.9,187.9,505.7,181.1,539.8,181.2 M539.8,151.2c-157.6,0-285.3,127.7-285.3,285.3
		s127.7,285.3,285.3,285.3s285.3-127.7,285.3-285.3S697.4,151.2,539.8,151.2z"/>
	<polygon points="556.6,126 523,126 523,201.5 556.6,201.5 556.6,126 	"/>
	<polygon points="556.6,671.5 523,671.5 523,747 556.6,747 556.6,671.5 	"/>
	<polygon points="851.2,419.7 775.7,419.7 775.7,453.3 851.2,453.3 851.2,419.7 	"/>
	<polygon points="304.8,419.7 229.3,419.7 229.3,453.3 304.8,453.3 304.8,419.7 	"/>
</g>
</svg>
