<?xml version="1.0" encoding="utf-8"?>
<!-- Generator: Adobe Illustrator 26.0.1, SVG Export Plug-In . SVG Version: 6.00 Build 0)  -->
<svg version="1.1" id="Calque_1" xmlns="http://www.w3.org/2000/svg" xmlns:xlink="http://www.w3.org/1999/xlink" x="0px" y="0px"
	 viewBox="0 0 1080 1080" style="enable-background:new 0 0 1080 1080;" xml:space="preserve">
<style type="text/css">
	.st0{fill:#FFFFFF;}
	.st1{fill:none;stroke:#000000;stroke-width:15;stroke-miterlimit:10;}
	.st2{fill:none;stroke:#000000;stroke-width:10;stroke-miterlimit:10;}
</style>
<g id="Calque_2_00000124871760797525296750000007594101758545568182_">
	<path class="st0" d="M140.8,0h798.5C1017,0,1080,63,1080,140.8v798.5c0,77.7-63,140.8-140.8,140.8H140.8C63,1080,0,1017,0,939.2
		V140.8C0,63,63,0,140.8,0z"/>
</g>
<g id="Calque_1_00000158729683496779029510000012273362186753937574_">
	<path d="M540,336c151.9,0.2,274.9,123.5,274.7,275.5S691.2,886.4,539.2,886.1S264.3,762.6,264.5,610.7c0.2-110.4,66.3-210,168-253
		C466.6,343.3,503.1,335.9,540,336 M540,306c-169,0-306,137-306,306s137,306,306,306s306-137,306-306S709,306,540,306z"/>
	<polygon points="558,279 522,279 522,360 558,360 558,279 	"/>
	<polygon points="558,864 522,864 522,945 558,945 558,864 	"/>
	<polygon points="874,594 793,594 793,630 874,630 874,594 	"/>
	<polygon points="288,594 207,594 207,630 288,630 288,594 	"/>
	<path d="M540,246c201.4,0.3,364.5,163.8,364.2,365.3C903.9,812.7,740.4,975.7,539,975.5S174.5,811.6,174.7,610.2
		c0.2-146.4,87.9-278.5,222.8-335.5C442.6,255.7,491.1,245.9,540,246 M540,216c-218.7,0-396,177.3-396,396s177.3,396,396,396
		s396-177.3,396-396S758.7,216,540,216"/>
	<rect x="513" y="171" width="54" height="63"/>
	<rect x="450" y="117" width="180" height="54"/>
	<rect x="804.6" y="305.6" transform="matrix(0.7045 -0.7097 0.7097 0.7045 15.1506 683.5909)" width="47.8" height="36"/>
	<rect x="840" y="239.9" transform="matrix(0.7045 -0.7097 0.7097 0.7045 44.9916 695.7631)" width="36" height="108"/>
	<path class="st1" d="M477.7,485.9h115.2c40.9,0,74,33.2,74,74.1V675c0,40.9-33.2,74-74,74H477.7c-40.9,0-74.1-33.2-74.1-74V559.9
		C403.7,519,436.8,485.9,477.7,485.9z"/>
	<path class="st1" d="M403.7,650.4c-24.2,0.4-44.2-19-44.5-43.2c-0.4-24.2,19-44.2,43.2-44.5c0.4,0,0.9,0,1.3,0"/>
	<path class="st1" d="M666.9,562.6c24.2,0.4,43.6,20.3,43.2,44.5c-0.4,23.7-19.5,42.9-43.2,43.2"/>
	<path class="st2" d="M469.5,672.3c0,0,0,21.9,21.9,21.9h87.8c0,0,21.9,0,21.9-21.9"/>
	<path d="M481.7,617.5h-2.4c-5.4,0-9.7-4.4-9.8-9.8v-24.4c0-5.4,4.4-9.7,9.8-9.8h2.4c5.4,0,9.7,4.4,9.8,9.8v24.4
		C491.4,613.1,487,617.5,481.7,617.5"/>
	<path d="M591.4,617.5h-2.4c-5.4,0-9.7-4.4-9.8-9.8v-24.4c0-5.4,4.4-9.7,9.8-9.8h2.4c5.4,0,9.7,4.4,9.8,9.8v24.4
		C601.1,613.1,596.7,617.5,591.4,617.5"/>
	<path d="M402.5,573.6c0,0-32.9-142.6,65.8-98.7c54.8-43.9,263.2-76.8,197.4,109.7c-109.7-76.8-131.6-76.8-186.5-76.8
		C457.3,540.7,435.4,551.7,402.5,573.6"/>
</g>
</svg>
