<?xml version="1.0" encoding="utf-8"?>
<!-- Generator: Adobe Illustrator 26.0.1, SVG Export Plug-In . SVG Version: 6.00 Build 0)  -->
<svg version="1.1" id="Calque_1" xmlns="http://www.w3.org/2000/svg" xmlns:xlink="http://www.w3.org/1999/xlink" x="0px" y="0px"
	 viewBox="0 0 1080 1080" style="enable-background:new 0 0 1080 1080;" xml:space="preserve">
<style type="text/css">
	.st0{fill:#FFFFFF;}
	.st1{fill:none;stroke:#000000;stroke-width:20;stroke-miterlimit:10;}
	.st2{fill:none;stroke:#000000;stroke-width:10;stroke-miterlimit:10;}
</style>
<g id="Calque_2_00000015340781889342422460000004223832187744252046_">
	<path class="st0" d="M140.8,0h798.5C1017,0,1080,63,1080,140.8v798.5c0,77.7-63,140.8-140.8,140.8H140.8C63,1080,0,1017,0,939.2
		V140.8C0,63,63,0,140.8,0z"/>
</g>
<g id="Calque_1_00000109715665014547352940000004323239212356162698_">
	<polygon points="558,279 522,279 522,360 558,360 	"/>
	<polygon points="558,864 522,864 522,945 558,945 	"/>
	<polygon points="874,594 793,594 793,630 874,630 	"/>
	<polygon points="288,594 207,594 207,630 288,630 	"/>
	<path class="st1" d="M332.6,601.4c81-21.3,171-85.2,207-31.9c36-53.2,126,10.7,207,31.9C683.6,711.9,395.6,711.9,332.6,601.4z"/>
	<path class="st2" d="M333.6,601.4c125.4,28.9,286.6,28.9,412,0"/>
	<path d="M540,246c201.4,0.3,364.5,163.8,364.2,365.3C903.9,812.7,740.4,975.7,539,975.5S174.5,811.6,174.7,610.2
		c0.2-146.4,87.9-278.5,222.8-335.5C442.6,255.7,491.1,245.9,540,246 M540,216c-218.7,0-396,177.3-396,396s177.3,396,396,396
		s396-177.3,396-396S758.7,216,540,216"/>
	<rect x="513" y="171" width="54" height="63"/>
	<rect x="450" y="117" width="180" height="54"/>
	<rect x="804.6" y="305.6" transform="matrix(0.7045 -0.7097 0.7097 0.7045 15.1706 683.5969)" width="47.8" height="36"/>
	<rect x="840" y="239.9" transform="matrix(0.7045 -0.7097 0.7097 0.7045 44.9706 695.7928)" width="36" height="108"/>
</g>
</svg>
