<?xml version="1.0" encoding="utf-8"?>
<!-- Generator: Adobe Illustrator 26.0.1, SVG Export Plug-In . SVG Version: 6.00 Build 0)  -->
<svg version="1.1" id="Calque_1" xmlns="http://www.w3.org/2000/svg" xmlns:xlink="http://www.w3.org/1999/xlink" x="0px" y="0px"
	 viewBox="0 0 1080 1080" style="enable-background:new 0 0 1080 1080;" xml:space="preserve">
<style type="text/css">
	.st0{fill:#FFFFFF;}
	.st1{fill:none;stroke:#000000;stroke-width:10;stroke-miterlimit:10;}
</style>
<g id="Calque_3">
	<path class="st0" d="M140.8,0h798.5C1017,0,1080,63,1080,140.8v798.5c0,77.7-63,140.8-140.8,140.8H140.8C63,1080,0,1017,0,939.2
		V140.8C0,63,63,0,140.8,0z"/>
</g>
<g id="Calque_1_00000143576021452928477960000012271548521067895484_">
	<rect x="504" y="864" width="72" height="81"/>
</g>
<g id="Calque_2_00000124870531084446728400000005811698500858006969_">
	<path d="M772.7,1008H307.3c-10.7,0-19.3-8.6-19.3-19.3l0,0v-33.4c0-10.7,8.6-19.3,19.3-19.3l0,0h465.4c10.7,0,19.3,8.6,19.3,19.3
		l0,0v33.4C792,999.4,783.4,1008,772.7,1008L772.7,1008"/>
	<path d="M164.3,72h751.5c51,0,92.3,41.3,92.3,92.3v607.5c0,51-41.3,92.3-92.3,92.3H164.3c-51,0-92.3-41.3-92.3-92.3V164.3
		C72,113.3,113.3,72,164.3,72z"/>
	<path class="st0" d="M191.3,99h697.5c51,0,92.3,41.3,92.3,92.3v481.5c0,51-41.3,92.3-92.3,92.3H191.3c-51,0-92.3-41.3-92.3-92.3
		V191.3C99,140.3,140.3,99,191.3,99z"/>
	<path d="M341.6,666.8h401.2c6.6,0,12,5.4,12,12V708c0,6.6-5.4,12-12,12H341.6c-6.6,0-12-5.4-12-12v-29.2
		C329.6,672.2,335,666.8,341.6,666.8z"/>
	<path d="M341.6,153h401.2c6.6,0,12,5.4,12,12v29.2c0,6.6-5.4,12-12,12H341.6c-6.6,0-12-5.4-12-12V165
		C329.6,158.4,335,153,341.6,153z"/>
	<path class="st1" d="M365,188.4c0,177.2,141.8,194.9,141.8,248.1S365,507.4,365,684.6h354.4c0-177.2-141.8-194.9-141.8-248.1
		s141.8-70.9,141.8-248.1H365z"/>
	<path d="M666.3,320.3c-53.2,53.2-70.9,63-124,80.7c-53.1-17.7-70.9-27.6-124-80.7"/>
	<path d="M400.5,667.4c0-38.9,74.6-71.5,141.7-71.5S684,628.5,684,667.4"/>
	<rect x="524.5" y="365.6" width="33.5" height="246.4"/>
</g>
</svg>
