<?xml version="1.0" encoding="utf-8"?>
<!-- Generator: Adobe Illustrator 26.0.1, SVG Export Plug-In . SVG Version: 6.00 Build 0)  -->
<svg version="1.1" id="Calque_1" xmlns="http://www.w3.org/2000/svg" xmlns:xlink="http://www.w3.org/1999/xlink" x="0px" y="0px"
	 viewBox="0 0 1080 1080" style="enable-background:new 0 0 1080 1080;" xml:space="preserve">
<style type="text/css">
	.st0{fill:#FFFFFF;}
	.st1{fill:none;stroke:#000000;stroke-width:30;stroke-miterlimit:10;}
</style>
<g id="Calque_2_00000179636042025546004080000006102394340570839952_">
	<path class="st0" d="M140.8,0h798.5C1017,0,1080,63,1080,140.8v798.5c0,77.7-63,140.8-140.8,140.8H140.8C63,1080,0,1017,0,939.2
		V140.8C0,63,63,0,140.8,0z"/>
</g>
<g id="Calque_1_00000134937677114830561060000015473735965681911719_">
	<path d="M540,246c201.4,0.3,364.5,163.8,364.2,365.3C903.9,812.7,740.4,975.7,539,975.5S174.5,811.6,174.7,610.2
		c0.2-146.4,87.9-278.5,222.8-335.5C442.6,255.7,491.1,245.9,540,246 M540,216c-218.7,0-396,177.3-396,396s177.3,396,396,396
		s396-177.3,396-396S758.7,216,540,216"/>
	<rect x="513" y="171" width="54" height="63"/>
	<rect x="450" y="117" width="180" height="54"/>
	<line class="st1" x1="171" y1="720" x2="909" y2="720"/>
	<rect x="804.6" y="305.6" transform="matrix(0.7045 -0.7097 0.7097 0.7045 15.1506 683.5909)" width="47.8" height="36"/>
	<rect x="840" y="239.9" transform="matrix(0.7045 -0.7097 0.7097 0.7045 44.9916 695.7631)" width="36" height="108"/>
	<path d="M476.1,895.9c-10.4,0-18.3-2.3-23.5-6.9c-5.2-4.6-7.9-11.7-7.9-21.3c0-9.1,2.6-15.9,7.9-20.3c5.3-4.5,13.2-6.7,23.7-6.7
		h24.4L502,857h-25.6c-4.2,0-7.3,0.9-9.4,2.6c-2.1,1.8-3.1,4.4-3.1,8c0,3.8,1.3,6.6,4,8.5c2.7,1.8,6.7,2.8,12.2,2.8
		c6.6,0,11.6-0.7,14.9-2.2c3.3-1.5,4.9-3.8,4.9-6.8l1.8,13c-1,2.9-2.8,5.5-5.3,7.3c-2.7,2-5.8,3.4-9.1,4.3
		C483.7,895.4,479.9,895.9,476.1,895.9z M500,894.6v-57.8c0-5.1-1.5-9-4.5-11.9c-3-2.8-7.3-4.2-12.8-4.2c-3.5,0-7,0.5-10.4,1.6
		c-3.3,1-6.4,2.6-9.1,4.7l-14-11.8c3.8-4.3,8.7-7.7,14.1-9.7c6.2-2.4,12.8-3.6,19.4-3.5c11.7,0,20.8,3,27.2,8.9
		c6.4,5.9,9.6,14.3,9.6,25v58.6L500,894.6z"/>
	<path d="M565.9,766.8v101c-0.1,1.8,0.5,3.7,1.7,5.1c1.2,1.3,3,2,4.8,1.8h6.2v20.1h-11.4c-7,0-12.5-2.1-16.4-6.3s-5.8-10.2-5.8-17.8
		V766.8H565.9z"/>
	<path d="M618.1,766.8v101c-0.1,1.8,0.5,3.7,1.7,5.1c1.2,1.3,3,2,4.8,1.8h6.2v20.1h-11.4c-7,0-12.5-2.1-16.4-6.3s-5.8-10.2-5.8-17.8
		V766.8H618.1z"/>
	<rect x="521" y="279" width="36" height="81"/>
	<rect x="792" y="594" width="81" height="36"/>
	<rect x="206" y="594" width="81" height="36"/>
	<path d="M575,626.8c-8.1,18.2-29.4,26.3-47.5,18.2c-18.2-8.1-26.3-29.4-18.2-47.5c8.1-18.2,29.4-26.3,47.5-18.2
		C574.9,587.4,583.1,608.7,575,626.8C575,626.8,575,626.8,575,626.8"/>
	<polygon points="542.1,612.2 509.2,597.5 588.6,463.7 668,329.9 621.5,478.4 575,626.8 	"/>
</g>
</svg>
